<svg width="24" height="24" viewBox="0 0 24 24" fill="none" xmlns="http://www.w3.org/2000/svg">
<path d="M12 16.2857C13.1366 16.2857 14.2267 15.8342 15.0305 15.0305C15.8342 14.2267 16.2857 13.1366 16.2857 12C16.2857 10.8634 15.8342 9.77327 15.0305 8.96954C14.2267 8.16582 13.1366 7.71429 12 7.71429C10.8634 7.71429 9.77327 8.16582 8.96954 8.96954C8.16582 9.77327 7.71429 10.8634 7.71429 12C7.71429 13.1366 8.16582 14.2267 8.96954 15.0305C9.77327 15.8342 10.8634 16.2857 12 16.2857ZM12.8571 0.857143C12.8571 0.629814 12.7668 0.411797 12.6061 0.251051C12.4453 0.0903058 12.2273 0 12 0C11.7727 0 11.5547 0.0903058 11.3939 0.251051C11.2332 0.411797 11.1429 0.629814 11.1429 0.857143V3.47143C9.17555 3.66913 7.33709 4.54088 5.93899 5.93899C4.54088 7.33709 3.66913 9.17555 3.47143 11.1429H0.857143C0.629814 11.1429 0.411797 11.2332 0.251051 11.3939C0.0903058 11.5547 0 11.7727 0 12C0 12.2273 0.0903058 12.4453 0.251051 12.6061C0.411797 12.7668 0.629814 12.8571 0.857143 12.8571H3.47143C3.66876 14.8248 4.54035 16.6636 5.93848 18.0621C7.33662 19.4605 9.17529 20.3325 11.1429 20.5303V23.1429C11.1429 23.3702 11.2332 23.5882 11.3939 23.7489C11.5547 23.9097 11.7727 24 12 24C12.2273 24 12.4453 23.9097 12.6061 23.7489C12.7668 23.5882 12.8571 23.3702 12.8571 23.1429V20.5303C14.8247 20.3325 16.6634 19.4605 18.0615 18.0621C19.4597 16.6636 20.3312 14.8248 20.5286 12.8571H23.1429C23.3702 12.8571 23.5882 12.7668 23.7489 12.6061C23.9097 12.4453 24 12.2273 24 12C24 11.7727 23.9097 11.5547 23.7489 11.3939C23.5882 11.2332 23.3702 11.1429 23.1429 11.1429H20.5286C20.3309 9.17555 19.4591 7.33709 18.061 5.93899C16.6629 4.54088 14.8244 3.66913 12.8571 3.47143V0.857143ZM12 18.8571C10.1814 18.8571 8.43723 18.1347 7.15127 16.8487C5.8653 15.5628 5.14286 13.8186 5.14286 12C5.14286 10.1814 5.8653 8.43723 7.15127 7.15127C8.43723 5.8653 10.1814 5.14286 12 5.14286C13.8186 5.14286 15.5628 5.8653 16.8487 7.15127C18.1347 8.43723 18.8571 10.1814 18.8571 12C18.8571 13.8186 18.1347 15.5628 16.8487 16.8487C15.5628 18.1347 13.8186 18.8571 12 18.8571Z" fill="#FD6912"/>
</svg>
