<svg width="20" height="24" viewBox="0 0 20 24" fill="none" xmlns="http://www.w3.org/2000/svg">
<path d="M19.7232 21.0821C19.0275 19.7681 18.3126 18.5121 18.0227 17.0435C17.6749 15.3043 17.8488 13.6618 17.9454 11.9227C18.042 10.2415 17.9454 8.52174 17.1338 6.99517C16.129 5.10145 14.3899 3.61353 12.2449 2.99517L11.2981 2.72464V1.31401C11.2981 0.618358 10.7763 0.0386473 10.0807 0C10.0614 0 10.0227 0 10.0034 0C9.98407 0 9.94542 0 9.92609 0C9.23044 0.0386473 8.7087 0.637681 8.7087 1.31401V2.74396L7.76184 3.01449C5.61691 3.63285 3.87778 5.12077 2.87295 7.01449C2.06136 8.54106 1.96474 10.2609 2.06136 11.942C2.15798 13.6812 2.35121 15.343 1.98406 17.0628C1.67489 18.5314 0.979233 19.7874 0.283581 21.1014C0.206286 21.2367 0.22561 21.372 0.302904 21.5072C0.380199 21.6425 0.515465 21.7005 0.670054 21.7005H7.81981L7.89711 21.9903C7.95508 23.1111 8.90194 24 10.0227 24C11.1435 24 12.0903 23.1111 12.1483 21.9903L12.2256 21.7005H19.3754C19.53 21.7005 19.6652 21.6232 19.7425 21.5072C19.7812 21.3527 19.7812 21.2174 19.7232 21.0821ZM10.0034 5.97101C7.35605 5.97101 5.21112 8.11594 5.21112 10.7633C5.21112 11.1498 4.90194 11.4589 4.51546 11.4589C4.12899 11.4589 3.81981 11.1498 3.81981 10.7633C3.81981 7.36232 6.5831 4.59903 9.98407 4.59903C10.3705 4.59903 10.6797 4.90821 10.6797 5.29469C10.699 5.66184 10.3899 5.97101 10.0034 5.97101Z" fill="white"/>
</svg>
